<svg xmlns="http://www.w3.org/2000/svg" width="95" height="95" viewBox="0 0 95 95">
  <defs>
    <style>
      .cls-1 {
        fill-rule: evenodd;
      }
    </style>
  </defs>
  <path id="_" data-name="✺" class="cls-1" d="M62.374,90.471l4.883-2.015L53.1,56.17,77.632,81.56l3.723-3.723L55.6,53.179,88.252,67.461l2.136-4.883L57.125,49.7l35.645,0.61V45.061l-35.645.732,33.142-13-2.014-4.821L55.6,42.315,81.355,17.6l-3.723-3.784L53.1,39.324,67.256,6.975,62.374,4.839l-13,33.081L50.105,2.459H44.856L45.528,37.92,32.649,4.961,27.767,6.975l14.1,32.471L17.391,13.811,13.606,17.6l25.513,24.6L6.77,27.971,4.634,32.793l33.142,13L2.254,45.061V50.31l35.522-.61L4.756,62.578,6.77,67.461,39.119,53.3,13.606,77.837l3.784,3.723L41.866,56.047l-14.1,32.409,4.883,2.137L45.528,57.451,44.856,92.973h5.249L49.373,57.451Z"/>
</svg>
