<svg width="1695" height="257" viewBox="0 0 1695 257" fill="none" xmlns="http://www.w3.org/2000/svg">
<g clip-path="url(#clip0_2094_280)">
<path d="M219.231 251.094H118.215C35.8478 251.094 0.310852 206.637 3.2892e-05 128.811C-0.310786 50.1568 35.8478 5.90723 118.215 5.90723H219.231V53.6802H127.229C76.6687 53.4729 59.5737 71.1935 59.5737 128.397C59.5737 186.014 76.876 203.321 127.229 203.321H219.231V251.094Z" fill="black"/>
<path d="M444.368 251.094H380.753C304.085 251.094 269.377 205.6 269.066 128.811C268.755 50.7786 303.981 5.90723 380.65 5.90723H444.264C520.933 5.90723 556.366 50.7786 556.055 128.915C555.641 205.497 521.14 251.094 444.368 251.094ZM431.521 53.1621H393.083C345.631 53.1621 328.432 73.8879 328.432 128.397C328.432 183.942 345.734 203.631 393.083 203.631H431.521C478.972 203.631 496.482 183.942 496.482 128.397C496.482 73.8879 478.972 53.1621 431.521 53.1621Z" fill="black"/>
<path d="M869.982 166.843V94.6133C869.982 34.5085 903.862 0 960.327 0C1016.79 0 1050.15 34.5085 1050.15 94.6133V251.093H995.346V89.2246C995.346 61.5556 982.603 49.1202 960.12 49.1202C937.637 49.1202 924.583 61.5556 924.583 89.2246V166.221C924.583 222.492 891.429 257.104 834.964 257.104C778.498 257.104 745.551 222.595 745.551 166.221V89.2246C745.551 61.5556 732.808 49.1202 710.325 49.1202C687.842 49.1202 674.788 61.5556 674.788 89.2246V251.3H620.188V94.6133C620.188 34.5085 654.067 0 710.532 0C766.998 0 800.463 34.5085 800.463 94.6133V166.843C800.463 195.237 811.548 208.294 835.378 208.294C858.586 208.294 869.982 195.133 869.982 166.843Z" fill="black"/>
<path d="M1140.71 251.093C1127.96 251.093 1123.71 247.362 1123.71 234.408V22.3835C1123.71 9.63712 1127.76 5.69922 1140.71 5.69922H1287.62C1328.75 5.69922 1356 36.7879 1356.52 72.9545C1356.52 96.3746 1346.16 116.064 1328.75 127.774C1346.26 140.728 1356.52 161.246 1356.52 183.008C1356.83 220.419 1327.82 250.782 1287 250.782H1140.71V251.093ZM1178.31 107.048H1268.97C1285.96 107.048 1297.36 93.6803 1297.05 76.2706C1297.05 58.6537 1285.96 46.8399 1268.97 46.8399H1178.31V107.048ZM1178.31 209.641H1268.97C1285.96 209.641 1297.05 196.584 1297.05 179.9C1297.05 161.868 1285.96 149.536 1268.97 149.536H1178.31V209.641Z" fill="black"/>
<path d="M1583.21 251.094H1519.59C1442.93 251.094 1408.22 205.6 1407.91 128.811C1407.6 50.7787 1442.72 5.80371 1519.59 5.80371H1583.21C1659.88 5.80371 1695.31 50.6751 1694.9 128.811C1694.69 205.497 1659.98 251.094 1583.21 251.094ZM1570.47 53.1622H1532.03C1484.78 53.1622 1467.38 73.888 1467.38 128.397C1467.38 183.942 1484.68 203.632 1532.03 203.632H1570.47C1617.71 203.632 1635.43 183.942 1635.43 128.397C1635.43 73.888 1617.92 53.1622 1570.47 53.1622Z" fill="black"/>
</g>
<defs>
<clipPath id="clip0_2094_280">
<rect width="1695" height="257" fill="white"/>
</clipPath>
</defs>
</svg>
