<svg width="32" height="32" viewBox="0 0 32 32" fill="none" xmlns="http://www.w3.org/2000/svg">
<g clip-path="url(#clip0_301_59)">
<path d="M0 0H32V32H0V0ZM1.09091 1.09091V13.8182L1.57576 13.5758L5.09091 10.0606L5.57576 10.303L13.3333 18.0606L13.8182 17.8182L15.6364 16L16.1212 16.2424L30.6667 30.7879H30.9091V1.09091H1.09091Z" fill="#020202"/>
<path d="M5.69632 11.8788L6.5448 12.6061L12.6054 18.6667V20L13.3327 20.2424L16.2418 21.8182L18.7872 23.2727L18.3024 22.6667L17.6963 22.0606L16.8478 21.3333L16.2418 20.6061L15.9993 20.4848V17.5758L16.8478 18.303L29.2115 30.6667V30.7879H26.4236L20.6054 24.9697L21.6963 28.2424L21.5751 28.8485L20.8478 29.5758L20.969 30.0606L21.5751 30.7879H5.57511L5.45389 27.6364L3.63571 24.4848L2.66602 22.7879L2.90844 22.6667L6.30238 24.6061L9.21147 26.303L11.8781 27.8788L11.2721 27.2727L11.1509 26.9091L10.666 26.6667L9.81753 25.697L8.84783 24.8485L8.36299 24.1212L9.33268 23.1515L9.09026 22.6667L6.30238 19.8788L7.02965 19.0303L8.12056 17.9394L6.90844 15.0303L5.69632 12.1212V11.8788Z" fill="#FCFCFC"/>
</g>
<defs>
<clipPath id="clip0_301_59">
<rect width="32" height="32" fill="white"/>
</clipPath>
</defs>
</svg>
