<svg width="32" height="32" viewBox="0 0 32 32" fill="none" xmlns="http://www.w3.org/2000/svg">
<path d="M25.3154 9.21327C25.3867 5.50327 22.3254 2.65527 18.1161 2.65527H9.41075C9.20782 2.65534 9.01158 2.72783 8.85735 2.8597C8.70311 2.99157 8.60101 3.17416 8.56941 3.37461L5.08075 25.1719C5.06514 25.2707 5.07112 25.3717 5.09829 25.4679C5.12545 25.5641 5.17314 25.6533 5.23809 25.7294C5.30303 25.8054 5.38368 25.8665 5.47448 25.9083C5.56529 25.9502 5.66409 25.9719 5.76408 25.9719H10.9221L10.1154 31.0199C10.0998 31.1188 10.1058 31.2198 10.133 31.3161C10.1602 31.4124 10.208 31.5016 10.273 31.5776C10.338 31.6537 10.4187 31.7147 10.5096 31.7565C10.6005 31.7984 10.6994 31.82 10.7994 31.8199H15.0007C15.2041 31.8199 15.3847 31.7466 15.5387 31.6153C15.6927 31.4833 15.7181 31.3013 15.7494 31.1006L16.9827 23.8439C17.0141 23.6439 17.1161 23.3839 17.2707 23.2519C17.4247 23.1199 17.5594 23.0479 17.7621 23.0473H20.3341C24.4561 23.0473 27.9541 20.1179 28.5934 16.0426C29.0454 13.1493 27.8047 10.5179 25.3154 9.21327Z" fill="#001C64"/>
<path d="M12.0373 17.9334L10.7526 26.08L9.94598 31.1894C9.93037 31.2882 9.93637 31.3892 9.96357 31.4855C9.99077 31.5818 10.0385 31.671 10.1035 31.7471C10.1686 31.8231 10.2493 31.8842 10.3402 31.926C10.4311 31.9678 10.5299 31.9895 10.63 31.9894H15.0766C15.2795 31.9892 15.4755 31.9166 15.6296 31.7847C15.7837 31.6529 15.8857 31.4704 15.9173 31.27L17.0893 23.8434C17.1209 23.6431 17.2229 23.4607 17.3771 23.3289C17.5312 23.1972 17.7272 23.1248 17.93 23.1247H20.548C24.67 23.1247 28.1673 20.118 28.8066 16.0427C29.26 13.15 27.804 10.5187 25.3146 9.21338C25.308 9.52138 25.2813 9.82871 25.234 10.1334C24.5946 14.208 21.0966 17.2154 16.9746 17.2154H12.878C12.6753 17.2154 12.4793 17.2877 12.3252 17.4194C12.1711 17.551 12.0691 17.7332 12.0373 17.9334Z" fill="#0070E0"/>
<path d="M10.752 26.0799H5.57865C5.47862 26.08 5.37976 26.0584 5.2889 26.0166C5.19805 25.9747 5.11735 25.9137 5.05238 25.8376C4.98741 25.7616 4.93973 25.6723 4.91261 25.576C4.88549 25.4797 4.87959 25.3787 4.89531 25.2799L8.38331 3.15861C8.41493 2.95822 8.51706 2.77571 8.6713 2.64395C8.82555 2.51219 9.02178 2.43985 9.22465 2.43994H18.116C22.3246 2.43994 25.386 5.50327 25.3146 9.21327C24.2673 8.66394 23.0366 8.34994 21.688 8.34994H14.2753C14.0726 8.35014 13.8766 8.42261 13.7225 8.55433C13.5684 8.68605 13.4664 8.86839 13.4346 9.06861L12.038 17.9333L10.752 26.0799Z" fill="#003087"/>
</svg>
