<svg width="25" height="32" viewBox="0 0 25 32" fill="none" xmlns="http://www.w3.org/2000/svg">
<path fill-rule="evenodd" clip-rule="evenodd" d="M22.6296 12.7597L12.5017 0L2.37698 12.7597C0.666728 14.92 0 16.7985 0 18.8403C0 21.9606 1.62683 24.7608 4.54052 26.7194L12.4983 32L20.4594 26.7194C23.3764 24.7608 25 21.9574 25 18.8403C25.0033 16.8017 24.3365 14.92 22.6296 12.7597ZM10.8781 26.201V28.0828L6.0041 24.8825C3.71377 23.4039 2.42025 21.2021 2.42025 18.9618C2.42025 17.8032 2.75367 16.6833 3.33707 15.6399C3.58706 16.3183 4.00382 16.9999 4.92063 18.0017L10.088 23.5223C10.9181 24.4408 10.8781 25.0009 10.8781 26.201ZM7.04422 16.8017C5.75072 15.4415 5.50404 14.6831 5.50404 13.883C5.50404 13.1214 5.67069 12.4429 6.67085 11.2012L12.505 3.92052L18.339 11.2012C19.2992 12.4429 19.5059 13.1214 19.5059 13.883C19.5059 14.6831 19.2559 15.4448 17.9657 16.8017L12.5017 22.6422L7.04422 16.8017ZM19.0025 24.8825L14.1286 28.0828V26.201C14.1286 25.0009 14.0885 24.4409 14.922 23.5192L20.0893 17.9987C21.0061 17.0001 21.4229 16.3184 21.6729 15.6369C22.2563 16.677 22.5897 17.797 22.5897 18.9588C22.5864 21.2022 21.2962 23.4007 19.0025 24.8825Z" fill="#0064FF"/>
</svg>
