<svg width="26" height="32" viewBox="0 0 26 32" fill="none" xmlns="http://www.w3.org/2000/svg">
<path d="M5.94495 7.85315H0V31.9265H5.94495V7.85315Z" fill="black"/>
<path d="M24.6606 9.24771C24.6606 4.11009 20.4771 0 15.4128 0H0V5.13761H14.6055C16.9541 5.13761 18.8624 6.97248 18.8624 9.17431C18.8624 10.2752 18.4954 11.3761 17.6881 12.1835C16.8807 12.9908 15.8532 13.4312 14.7523 13.4312H9.02752C8.80734 13.4312 8.66055 13.578 8.66055 13.7982V18.3486C8.66055 18.422 8.66055 18.4954 8.73395 18.5688L18.422 32H25.4679L15.8532 18.4954C20.6973 18.2752 24.6606 14.1651 24.6606 9.24771Z" fill="black"/>
</svg>
