<svg width="162" height="151" viewBox="0 0 162 151" fill="none" xmlns="http://www.w3.org/2000/svg">
<path d="M104.982 -47.5018V43.9188C104.982 46.5584 106.408 48.9921 108.711 50.2825L186.175 93.6925C187.741 94.5701 189.506 95.0309 191.301 95.0309H192.379C196.859 95.0309 200.845 92.1841 202.298 87.9456L204.147 82.552C204.523 81.4574 204.714 80.3082 204.714 79.1511V27.0772C204.714 25.5598 204.385 24.0605 203.749 22.6828L202.681 20.3678C200.967 16.6541 197.25 14.2758 193.159 14.2758H191.342C189.521 14.2758 187.731 14.7502 186.149 15.6523L149.553 36.5155C146.892 38.0327 143.7 38.3103 140.817 37.2753L136.556 35.7458C132.391 34.2506 129.613 30.3015 129.613 25.8761V24.2855C129.613 20.5833 131.565 17.1555 134.749 15.2667L176.257 -9.35683C176.921 -9.7512 177.534 -10.2272 178.081 -10.7738C181.493 -14.1864 181.714 -19.6472 178.589 -23.3245L178.39 -23.5584C177.641 -24.4392 176.74 -25.1774 175.729 -25.7376L119.748 -56.7539C118.273 -57.5712 116.615 -58 114.928 -58C109.435 -58 104.982 -53.5471 104.982 -48.0542V-47.5018Z" fill="black"/>
<path d="M99.7324 -47.5018V43.9188C99.7324 46.5584 98.3065 48.9921 96.0038 50.2825L18.54 93.6925C16.974 94.5701 15.2088 95.0309 13.4137 95.0309H12.3362C7.85553 95.0309 3.86988 92.1841 2.4167 87.9456L0.567505 82.552C0.192215 81.4574 0.000686646 80.3082 0.000686646 79.1511V27.0772C0.000686646 25.5598 0.329987 24.0605 0.965843 22.6828L2.03429 20.3678C3.74832 16.6541 7.46526 14.2758 11.5555 14.2758H13.3724C15.1937 14.2758 16.9837 14.7502 18.5659 15.6523L55.1618 36.5155C57.8232 38.0327 61.015 38.3103 63.8983 37.2753L68.159 35.7458C72.3241 34.2506 75.1023 30.3015 75.1023 25.8761V24.2855C75.1023 20.5833 73.1502 17.1555 69.9662 15.2667L28.4583 -9.35683C27.7935 -9.7512 27.1807 -10.2272 26.6341 -10.7738C23.2215 -14.1864 23.0005 -19.6472 26.1262 -23.3245L26.325 -23.5584C27.0736 -24.4392 27.9752 -25.1774 28.9863 -25.7376L84.9665 -56.7539C86.4416 -57.5712 88.1003 -58 89.7866 -58C95.2795 -58 99.7324 -53.5471 99.7324 -48.0542V-47.5018Z" fill="black"/>
<path d="M95.7333 54.8878C99.7472 52.4904 104.743 52.4484 108.797 54.778L182.678 97.2371C184.399 98.2258 185.836 99.6397 186.854 101.343C189.394 105.595 188.951 110.991 185.753 114.773L183.277 117.7C182.068 119.129 180.631 120.347 179.025 121.307L135.804 147.122C134.133 148.12 132.265 148.744 130.329 148.95L129.719 149.015C124.873 149.53 120.17 147.181 117.671 142.997C116.558 141.134 115.95 139.013 115.906 136.844L115.099 97.049C115.013 92.85 113.096 88.8982 109.851 86.2322L108.416 85.0531C104.589 81.9092 99.2005 81.5061 94.9485 84.0457C91.3914 86.1703 89.2182 90.0131 89.2306 94.1563L89.3731 141.707C89.3754 142.48 89.281 143.25 89.092 144C87.9121 148.679 83.3372 151.669 78.5775 150.871L78.2747 150.821C77.1347 150.629 76.0386 150.234 75.0392 149.653L19.7059 117.497C18.2479 116.65 17.0292 115.446 16.1645 113.998C13.3479 109.282 14.8874 103.176 19.6032 100.359L95.7333 54.8878Z" fill="black"/>
</svg>
