<svg width="162" height="151" viewBox="0 0 162 151" fill="none" xmlns="http://www.w3.org/2000/svg">
<path d="M173.553 -58C152.733 -57.9999 135.856 -41.1223 135.855 -20.3027V-15.9551C113.502 -40.9711 75.106 -43.2098 49.9951 -20.9229C24.8322 1.41049 22.5386 39.9144 44.8721 65.0771C46.0222 66.373 47.2163 67.6071 48.4482 68.7812L0 112.187C2.582 118.822 6.37857 125.115 11.4102 130.731C33.8605 155.79 72.3748 157.904 97.4336 135.454C122.492 113.004 124.607 74.4902 102.156 49.4316C101.055 48.2027 99.9161 47.0285 98.7412 45.9102L135.855 12.9697V150.231H211.25V-20.3027C211.25 -41.1223 194.372 -58 173.553 -58Z" fill="black"/>
</svg>
