<svg width="162" height="151" viewBox="0 0 162 151" fill="none" xmlns="http://www.w3.org/2000/svg">
<path d="M51.2983 -51.6935L51.1615 -51.6422C51.1611 -51.6421 51.1613 -51.6426 51.1615 -51.6422C51.1616 -51.6419 51.161 -51.6406 51.1606 -51.6404C41.1483 -47.7507 38.7337 -40.5342 38.3955 -31.1378C38.255 -27.234 38.5914 -23.9202 38.9188 -20.6961C39.3863 -16.0922 39.8353 -11.6709 38.8503 -5.97514C37.7763 0.235477 33.9318 4.6668 30.2709 8.88651C25.6935 14.1628 21.403 19.1082 23.1744 26.7874C25.3276 36.1214 34.4739 36.3691 44.1058 36.6299C53.1299 36.8742 62.5801 37.1301 67.1044 44.881C67.1721 44.997 67.2388 45.1142 67.3046 45.2328C69.9098 49.9304 68.9208 56.0514 64.8995 59.6129C58.1809 65.5633 49.1234 62.8552 40.4743 60.2692C31.2427 57.5091 22.4764 54.888 17.5161 63.0829C13.4351 69.8248 15.9666 75.8628 18.6675 82.3046C20.8275 87.4565 23.0958 92.8668 22.1767 99.1022C21.3337 104.821 19.5265 108.881 17.6446 113.108C16.3268 116.069 14.9722 119.112 13.8866 122.864C11.2735 131.897 11.3138 139.506 19.6107 146.328C19.6109 146.328 19.611 146.328 19.6107 146.328C19.6105 146.328 19.6106 146.33 19.6109 146.33L19.7178 146.416L19.8294 146.506C19.8292 146.507 19.8297 146.506 19.8294 146.506C19.8296 146.506 19.831 146.506 19.8313 146.506C28.2557 153.17 35.7013 151.598 43.9751 147.131C47.4126 145.275 50.0996 143.307 52.714 141.392C56.4472 138.657 60.0323 136.031 65.4425 133.997C71.3418 131.778 77.1098 132.849 82.6023 133.869C89.47 135.144 95.9071 136.339 101.632 130.923C108.59 124.34 104.172 116.327 99.5195 107.89C95.1604 99.9844 90.5955 91.7059 94.9879 83.8795C97.7484 78.9611 103.905 76.636 109.227 78.5019C117.697 81.4709 119.744 90.7003 121.699 99.5135C123.785 108.92 125.766 117.853 135.339 118.193C143.215 118.473 147.255 113.321 151.565 107.824C155.013 103.428 158.633 98.8117 164.526 96.577C169.931 94.5276 174.357 94.1282 178.966 93.7123C182.193 93.4211 185.511 93.1217 189.317 92.2419C198.477 90.1243 205.105 86.3817 207.021 75.8125L207.069 75.5353C207.069 75.535 207.069 75.5354 207.069 75.5353C207.069 75.5353 207.068 75.5342 207.068 75.5339C208.784 64.9304 203.784 59.1938 195.853 54.1438C192.558 52.0457 189.53 50.6578 186.584 49.3074C182.377 47.3791 178.337 45.5273 173.925 41.7937C169.113 37.7225 167.239 32.1634 165.454 26.8698C163.222 20.2508 161.131 14.0468 153.612 11.6855C144.473 8.81542 139.627 16.5769 134.525 24.7504C129.744 32.4081 124.738 40.4275 115.764 40.4038C114.999 40.4018 114.214 40.3507 113.415 40.2575C108.497 39.6839 104.22 36.0828 103.266 31.2242C101.537 22.4176 108.459 15.9786 115.069 9.83009C122.124 3.26744 128.823 -2.96444 124.269 -11.3916C120.522 -18.3247 114.033 -19.1994 107.111 -20.1326C101.575 -20.8789 95.7606 -21.6627 90.8493 -25.6129C86.3451 -29.2356 83.7595 -32.8498 81.0669 -36.6134C79.1814 -39.2491 77.2432 -41.9582 74.5572 -44.7946C68.0921 -51.6216 61.5099 -55.4405 51.4258 -51.7406C51.4255 -51.7405 51.4259 -51.7403 51.4258 -51.7406C51.4257 -51.741 51.4245 -51.7415 51.4242 -51.7414L51.2983 -51.6935Z" fill="#F4F4F4" fill-opacity="0.25"/>
<path d="M102.51 -57.9995L102.369 -57.9998C102.369 -57.9998 102.369 -58.0002 102.369 -57.9998C102.369 -57.9995 102.368 -57.9985 102.368 -57.9985C91.6265 -57.8971 86.8179 -51.999 83.1817 -43.328C81.671 -39.7256 80.8151 -36.5067 79.9822 -33.3748C78.793 -28.9026 77.651 -24.6078 74.7172 -19.6274C71.5182 -14.1968 66.3561 -11.4095 61.4405 -8.7553C55.2941 -5.43655 49.5331 -2.3259 48.4772 5.48394C47.1938 14.9767 55.6628 18.4398 64.5814 22.0868C72.9371 25.5036 81.6875 29.0817 83.1817 37.9312C83.2041 38.0637 83.2251 38.197 83.2447 38.3312C84.0222 43.6463 80.9344 49.0231 75.9142 50.9341C67.5266 54.1271 60.01 48.3936 52.8323 42.9187C45.1713 37.075 37.8964 31.5259 30.3606 37.4397C24.1609 42.3051 24.396 48.848 24.6467 55.8287C24.8473 61.4115 25.0579 67.2742 21.995 72.7828C19.186 77.8346 16.061 80.9942 12.8069 84.2844C10.528 86.5885 8.18571 88.9567 5.84435 92.0836C0.208742 99.61 -2.44213 106.743 2.90955 116.056C2.90974 116.057 2.90988 116.056 2.90955 116.056C2.90923 116.057 2.90889 116.058 2.90908 116.058L2.982 116.182L3.05125 116.3C3.05094 116.301 3.05143 116.301 3.05125 116.3C3.05156 116.3 3.05285 116.301 3.05304 116.301C8.5797 125.511 16.1007 126.671 25.419 125.416C29.2904 124.894 32.4996 124.002 35.6219 123.134C40.0805 121.895 44.3621 120.705 50.1424 120.713C56.4452 120.721 61.4628 123.761 66.2407 126.655C72.215 130.275 77.8146 133.667 85.0838 130.623C93.9193 126.923 92.6169 117.866 91.2453 108.329C89.9603 99.3933 88.6145 90.0359 95.4888 84.2661C99.8088 80.6401 106.39 80.6401 110.71 84.266C117.584 90.0358 116.238 99.3932 114.953 108.329C113.582 117.866 112.279 126.922 121.115 130.623C128.384 133.667 133.984 130.275 139.958 126.655C144.736 123.761 149.753 120.721 156.056 120.713C161.837 120.705 166.118 121.895 170.577 123.134C173.699 124.002 176.908 124.894 180.78 125.416C190.098 126.671 197.62 125.511 203.147 116.301C203.172 116.257 203.199 116.213 203.224 116.17L203.29 116.058C203.29 116.058 203.29 116.058 203.29 116.058C203.289 116.058 203.289 116.057 203.289 116.057C208.641 106.743 205.99 99.61 200.354 92.0836C198.013 88.9566 195.671 86.5884 193.392 84.2843C190.138 80.9942 187.013 77.8346 184.204 72.7827C181.141 67.2742 181.352 61.4114 181.552 55.8286C181.803 48.848 182.038 42.305 175.838 37.4397C168.302 31.5258 161.027 37.0749 153.366 42.9186C146.189 48.3936 138.672 54.127 130.285 50.9341C129.57 50.6621 128.854 50.3371 128.139 49.9677C123.741 47.6935 121.012 42.8135 121.837 37.9312C123.331 29.0817 132.081 25.5035 140.437 22.0867C149.355 18.4398 157.824 14.9767 156.541 5.48394C155.485 -2.32591 149.724 -5.43655 143.578 -8.7553C138.662 -11.4095 133.5 -14.1968 130.301 -19.6274C127.367 -24.6078 126.225 -28.9025 125.036 -33.3746C124.203 -36.5064 123.347 -39.7256 121.837 -43.328C118.2 -51.999 113.392 -57.8971 102.651 -57.9985C102.65 -57.9985 102.651 -57.9981 102.651 -57.9985C102.651 -57.9989 102.65 -57.9998 102.649 -57.9998L102.51 -57.9995Z" fill="black"/>
</svg>
