<svg width="175" height="152" viewBox="0 0 175 152" fill="none" xmlns="http://www.w3.org/2000/svg">
<path d="M160.953 -10.4207C190.851 -45.3303 225.347 -64.8437 238.002 -54.0056C250.395 -43.3922 237.246 -7.6105 208.619 26.6516C238.308 28.3085 259.995 37.6343 261.602 51.3528C263.53 67.8246 235.859 85.0778 197.601 92.5881C210.179 112.358 213.732 131.438 205.021 138.9C194.24 148.132 168.763 136.074 148.117 111.967C143.263 106.299 139.108 100.468 135.731 94.7463C134.52 94.564 133.329 94.3696 132.159 94.1584L131.057 85.8362C131.026 85.7689 130.996 85.7012 130.966 85.634V151.085C130.966 151.588 130.558 151.996 130.055 151.996C129.552 151.996 129.144 151.588 129.144 151.085V94.2268C127.477 94.5219 125.768 94.79 124.02 95.0266C120.673 100.658 116.577 106.391 111.802 111.967C91.1556 136.074 65.6791 148.132 54.8984 138.9C46.1401 131.399 49.7746 112.153 62.5176 92.2698C25.0795 84.5997 -1.8068 67.5963 0.0957031 51.3518C1.66618 37.9448 22.416 28.7342 51.0693 26.7766C22.3706 -7.52331 9.17524 -43.3804 21.583 -54.0066C34.2383 -64.8444 68.7344 -45.3301 98.6318 -10.4207C112.699 6.00527 123.241 22.9135 129.144 37.342V13.9026C129.144 13.3993 129.551 12.9915 130.055 12.9915C130.558 12.9915 130.966 13.3993 130.966 13.9026V36.0842C136.957 21.9362 147.292 5.53013 160.953 -10.4207Z" fill="black"/>
</svg>
