<svg width="664" height="65" viewBox="0 0 664 65" fill="none" xmlns="http://www.w3.org/2000/svg">
<path d="M662.879 0.5V63.5996H649.279V0.5H662.879Z" fill="black" stroke="black"/>
<path d="M613.014 0.5V51.9502H628.063V0.5H641.664V63.5996H599.414V12.1504H584.363V63.5996H570.764V0.5H613.014Z" fill="black" stroke="black"/>
<path d="M563.441 0.5V63.5996H549.841V12.1504H506.141V51.9502H538.391V63.5996H492.541V0.5H563.441Z" fill="black" stroke="black"/>
<path d="M484.926 0.5V63.5996H414.025V51.9502H471.325V0.5H484.926Z" fill="black" stroke="black"/>
<path d="M377.76 0.5V51.9502H392.81V0.5H406.41V63.5996H364.16V12.1504H349.109V63.5996H335.51V0.5H377.76Z" fill="black" stroke="black"/>
<path d="M328.162 0.5V63.5996H314.562V0.5H328.162Z" fill="black" stroke="black"/>
<path d="M306.947 0.5V37.7998H290.146V51.9502H306.947V63.5996H276.547V37.7998H249.646V63.5996H236.047V0.5H306.947ZM249.646 26.2998H293.347V12.1504H249.646V26.2998Z" fill="black" stroke="black"/>
<path d="M228.574 0.649902V37.9497H171.725V52.1001H228.574V63.6001H157.824V26.3003H214.975V12.3003H157.824V0.649902H228.574Z" fill="black" stroke="black"/>
<path d="M150.059 51.9497V63.6001H79.3086V51.9497H150.059ZM150.059 0.649902V45.1499H79.3086V0.649902H150.059ZM92.9082 33.6499H136.459V12.3003H92.9082V33.6499Z" fill="black" stroke="black"/>
<path d="M71.25 0.649902V12.3003H14.0996V52.1001H57.6504V37.9497H22.8496V26.3003H71.25V63.6001H0.5V0.649902H71.25Z" fill="black" stroke="black"/>
</svg>
